<?xml version="1.0" encoding="UTF-8"?><svg xmlns="http://www.w3.org/2000/svg" xmlns:xlink="http://www.w3.org/1999/xlink" contentScriptType="text/ecmascript" width="375" zoomAndPan="magnify" contentStyleType="text/css" viewBox="0 0 375 374.999991" height="374.999991" preserveAspectRatio="xMidYMid meet" version="1.0"><defs><clipPath id="clip-0"><path d="M 134 140 L 261.75 140 L 261.75 262.5 L 134 262.5 Z M 134 140 " clip-rule="nonzero"/></clipPath></defs><path fill="rgb(100%, 74.508667%, 3.138733%)" d="M 227.714844 260.792969 L 259.59375 142.625 L 201.957031 176.828125 L 201.957031 176.835938 C 202.011719 185.074219 197.835938 193.148438 190.246094 197.652344 C 182.652344 202.160156 173.578125 201.953125 166.363281 197.953125 L 135.984375 215.988281 C 153.933594 235.375 183.636719 240.34375 207.257812 226.320312 C 207.480469 226.199219 207.691406 226.046875 207.910156 225.917969 L 208.136719 227.800781 Z M 227.714844 260.792969 " fill-opacity="1" fill-rule="nonzero"/><path fill="rgb(100%, 58.81958%, 4.309082%)" d="M 190.246094 197.652344 C 182.652344 202.160156 173.578125 201.953125 166.363281 197.953125 L 140.285156 213.433594 C 157.914062 224.523438 181 225.613281 200.113281 214.273438 C 219.222656 202.933594 229.320312 182.148438 228.03125 161.367188 L 201.957031 176.835938 C 202.011719 185.074219 197.835938 193.148438 190.246094 197.652344 Z M 190.246094 197.652344 " fill-opacity="1" fill-rule="nonzero"/><path fill="rgb(100%, 74.508667%, 3.138733%)" d="M 154.230469 177.515625 C 154.171875 169.257812 158.339844 161.195312 165.9375 156.691406 C 173.527344 152.183594 182.609375 152.390625 189.820312 156.390625 L 220.203125 138.355469 C 202.25 118.96875 172.542969 114 148.925781 128.023438 C 125.300781 142.035156 115.433594 170.484375 123.847656 195.53125 Z M 154.230469 177.515625 " fill-opacity="1" fill-rule="nonzero"/><path fill="rgb(100%, 58.81958%, 4.309082%)" d="M 165.9375 156.691406 C 173.527344 152.183594 182.609375 152.390625 189.820312 156.390625 L 215.898438 140.90625 C 198.273438 129.808594 175.183594 128.726562 156.070312 140.058594 C 136.960938 151.410156 126.855469 172.1875 128.148438 192.976562 L 154.230469 177.515625 C 154.171875 169.257812 158.339844 161.195312 165.9375 156.691406 Z M 165.9375 156.691406 " fill-opacity="1" fill-rule="nonzero"/><path fill="rgb(19.999695%, 21.179199%, 22.749329%)" d="M 123.847656 197.238281 C 123.648438 197.238281 123.445312 197.207031 123.25 197.132812 C 122.765625 196.949219 122.394531 196.574219 122.226562 196.078125 C 113.429688 169.886719 124.292969 140.648438 148.050781 126.542969 C 171.8125 112.441406 202.683594 116.921875 221.453125 137.195312 C 221.804688 137.578125 221.964844 138.089844 221.894531 138.601562 C 221.816406 139.113281 221.515625 139.558594 221.070312 139.832031 L 190.691406 157.855469 C 190.167969 158.171875 189.519531 158.175781 188.988281 157.882812 C 182.0625 154.03125 173.566406 154.144531 166.808594 158.160156 C 160.050781 162.167969 155.882812 169.574219 155.941406 177.496094 C 155.941406 178.105469 155.625 178.664062 155.101562 178.976562 L 124.71875 197 C 124.453125 197.167969 124.152344 197.238281 123.847656 197.238281 Z M 178.039062 121.78125 C 168.324219 121.78125 158.550781 124.289062 149.800781 129.492188 C 128.019531 142.40625 117.75 168.824219 124.832031 192.960938 L 152.53125 176.523438 C 152.808594 167.777344 157.546875 159.675781 165.0625 155.210938 C 172.582031 150.761719 181.957031 150.476562 189.769531 154.433594 L 217.46875 137.988281 C 206.828125 127.355469 192.5 121.78125 178.039062 121.78125 Z M 178.039062 121.78125 " fill-opacity="1" fill-rule="nonzero"/><path fill="rgb(100%, 74.508667%, 3.138733%)" d="M 188.835938 170.792969 C 192.355469 176.730469 190.398438 184.390625 184.464844 187.914062 C 178.535156 191.429688 170.871094 189.476562 167.351562 183.539062 C 163.828125 177.613281 165.785156 169.941406 171.71875 166.429688 C 177.648438 162.90625 185.3125 164.867188 188.835938 170.792969 Z M 188.835938 170.792969 " fill-opacity="1" fill-rule="nonzero"/><path fill="rgb(100%, 58.81958%, 4.309082%)" d="M 167.351562 183.539062 C 163.828125 177.609375 165.785156 169.941406 171.71875 166.429688 C 177.648438 162.90625 185.3125 164.867188 188.835938 170.792969 " fill-opacity="1" fill-rule="nonzero"/><path fill="rgb(19.999695%, 21.179199%, 22.749329%)" d="M 178.113281 191.375 C 176.9375 191.375 175.753906 191.230469 174.578125 190.929688 C 170.90625 189.988281 167.8125 187.675781 165.875 184.414062 C 163.9375 181.152344 163.394531 177.335938 164.328125 173.664062 C 165.269531 169.984375 167.582031 166.890625 170.84375 164.953125 C 177.570312 160.964844 186.300781 163.183594 190.304688 169.925781 C 192.238281 173.191406 192.789062 177.003906 191.851562 180.675781 C 190.914062 184.351562 188.601562 187.441406 185.335938 189.378906 C 183.113281 190.703125 180.632812 191.375 178.113281 191.375 Z M 178.074219 166.390625 C 176.203125 166.390625 174.3125 166.875 172.585938 167.898438 C 170.109375 169.363281 168.355469 171.710938 167.644531 174.503906 C 166.933594 177.292969 167.351562 180.195312 168.820312 182.671875 C 170.289062 185.152344 172.636719 186.90625 175.425781 187.617188 C 178.21875 188.332031 181.117188 187.914062 183.59375 186.4375 C 186.070312 184.976562 187.828125 182.628906 188.539062 179.839844 C 189.25 177.050781 188.835938 174.140625 187.359375 171.664062 C 185.351562 168.269531 181.757812 166.390625 178.074219 166.390625 Z M 178.074219 166.390625 " fill-opacity="1" fill-rule="nonzero"/><path fill="rgb(19.999695%, 21.179199%, 22.749329%)" d="M 142.425781 200.042969 C 141.84375 200.042969 141.273438 199.742188 140.957031 199.203125 C 140.472656 198.390625 140.742188 197.351562 141.554688 196.863281 L 156.734375 187.859375 C 157.546875 187.378906 158.589844 187.648438 159.074219 188.453125 C 159.558594 189.273438 159.285156 190.316406 158.480469 190.796875 L 143.300781 199.804688 C 143.023438 199.964844 142.722656 200.042969 142.425781 200.042969 Z M 142.425781 200.042969 " fill-opacity="1" fill-rule="nonzero"/><path fill="rgb(19.999695%, 21.179199%, 22.749329%)" d="M 133.679688 205.226562 C 133.234375 205.226562 132.792969 205.042969 132.472656 204.722656 C 132.15625 204.414062 131.972656 203.972656 131.972656 203.523438 C 131.972656 203.070312 132.15625 202.632812 132.472656 202.308594 C 133.113281 201.6875 134.265625 201.6875 134.886719 202.308594 C 135.210938 202.632812 135.386719 203.070312 135.386719 203.523438 C 135.386719 203.972656 135.210938 204.40625 134.886719 204.722656 C 134.570312 205.042969 134.136719 205.226562 133.679688 205.226562 Z M 133.679688 205.226562 " fill-opacity="1" fill-rule="nonzero"/><path fill="rgb(19.999695%, 21.179199%, 22.749329%)" d="M 125.714844 209.953125 C 125.273438 209.953125 124.835938 209.769531 124.503906 209.460938 C 124.1875 209.132812 124.003906 208.6875 124.003906 208.246094 C 124.003906 207.800781 124.1875 207.355469 124.503906 207.035156 C 125.15625 206.398438 126.285156 206.398438 126.917969 207.035156 C 127.242188 207.355469 127.425781 207.800781 127.425781 208.246094 C 127.425781 208.6875 127.242188 209.132812 126.917969 209.460938 C 126.605469 209.769531 126.15625 209.953125 125.714844 209.953125 Z M 125.714844 209.953125 " fill-opacity="1" fill-rule="nonzero"/><path fill="rgb(19.999695%, 21.179199%, 22.749329%)" d="M 198.578125 166.722656 C 197.992188 166.722656 197.425781 166.425781 197.109375 165.890625 C 196.625 165.070312 196.890625 164.019531 197.703125 163.542969 L 212.882812 154.542969 C 213.695312 154.054688 214.742188 154.320312 215.226562 155.140625 C 215.707031 155.953125 215.4375 156.992188 214.625 157.476562 L 199.453125 166.484375 C 199.171875 166.648438 198.878906 166.722656 198.578125 166.722656 Z M 198.578125 166.722656 " fill-opacity="1" fill-rule="nonzero"/><path fill="rgb(19.999695%, 21.179199%, 22.749329%)" d="M 222.5 152.535156 C 222.046875 152.535156 221.597656 152.347656 221.292969 152.035156 C 220.976562 151.707031 220.792969 151.265625 220.792969 150.820312 C 220.792969 150.363281 220.976562 149.925781 221.292969 149.601562 C 221.933594 148.960938 223.0625 148.960938 223.707031 149.601562 C 224.03125 149.925781 224.207031 150.363281 224.207031 150.820312 C 224.207031 151.265625 224.03125 151.707031 223.707031 152.035156 C 223.390625 152.347656 222.945312 152.535156 222.5 152.535156 Z M 222.5 152.535156 " fill-opacity="1" fill-rule="nonzero"/><path fill="rgb(19.999695%, 21.179199%, 22.749329%)" d="M 230.460938 147.800781 C 229.882812 147.800781 229.308594 147.5 228.992188 146.964844 C 228.507812 146.160156 228.78125 145.105469 229.589844 144.617188 L 252.652344 130.933594 C 253.464844 130.457031 254.511719 130.71875 254.996094 131.53125 C 255.472656 132.347656 255.207031 133.386719 254.394531 133.878906 L 231.335938 147.558594 C 231.0625 147.726562 230.761719 147.800781 230.460938 147.800781 Z M 230.460938 147.800781 " fill-opacity="1" fill-rule="nonzero"/><g clip-path="url(#clip-0)"><path fill="rgb(19.999695%, 21.179199%, 22.749329%)" d="M 227.714844 262.5 C 227.117188 262.5 226.554688 262.183594 226.246094 261.664062 L 206.667969 228.671875 C 206.664062 228.65625 206.65625 228.652344 206.652344 228.640625 C 183.097656 241.699219 153.109375 237 134.730469 217.136719 C 134.378906 216.761719 134.21875 216.242188 134.292969 215.734375 C 134.363281 215.222656 134.664062 214.773438 135.109375 214.511719 L 165.492188 196.484375 C 166.015625 196.171875 166.660156 196.167969 167.195312 196.460938 C 174.117188 200.304688 182.617188 200.199219 189.375 196.195312 C 196.136719 192.183594 200.296875 184.769531 200.242188 176.847656 C 200.242188 176.238281 200.558594 175.671875 201.082031 175.371094 L 258.71875 141.15625 C 259.320312 140.800781 260.070312 140.84375 260.628906 141.265625 C 261.179688 141.683594 261.421875 142.402344 261.238281 143.074219 L 229.367188 261.230469 C 229.1875 261.90625 228.625 262.394531 227.945312 262.484375 C 227.867188 262.5 227.792969 262.5 227.714844 262.5 Z M 209.789062 227.234375 L 227.117188 256.433594 L 256.847656 146.246094 L 203.652344 177.808594 C 203.375 186.5625 198.640625 194.667969 191.117188 199.132812 C 183.605469 203.582031 174.226562 203.863281 166.410156 199.910156 L 138.710938 216.347656 C 156.503906 234.136719 184.609375 237.773438 206.390625 224.851562 L 207.03125 224.449219 C 207.523438 224.160156 208.136719 224.128906 208.660156 224.378906 C 209.183594 224.632812 209.539062 225.132812 209.605469 225.707031 Z M 209.789062 227.234375 " fill-opacity="1" fill-rule="nonzero"/></g><path fill="rgb(19.999695%, 21.179199%, 22.749329%)" d="M 222.78125 224.839844 C 222.148438 224.839844 221.566406 224.488281 221.269531 223.925781 L 209.34375 201.300781 C 209.011719 200.671875 209.105469 199.898438 209.585938 199.371094 C 210.058594 198.835938 210.8125 198.660156 211.480469 198.914062 L 222.78125 203.34375 L 234.078125 198.914062 C 234.746094 198.660156 235.503906 198.835938 235.980469 199.371094 C 236.453125 199.898438 236.550781 200.671875 236.214844 201.300781 L 224.296875 223.925781 C 224 224.488281 223.417969 224.839844 222.78125 224.839844 Z M 214.515625 203.773438 L 222.78125 219.464844 L 231.050781 203.773438 L 223.40625 206.773438 C 223.003906 206.925781 222.558594 206.925781 222.160156 206.773438 Z M 214.515625 203.773438 " fill-opacity="1" fill-rule="nonzero"/></svg>