<svg xmlns="http://www.w3.org/2000/svg" width="375" viewBox="0 0 375 375" height="375" version="1.0"><path fill="#FFBE08" d="M 289.90625 370.730469 L 369.605469 75.3125 L 225.511719 160.824219 L 225.511719 160.835938 C 225.652344 181.441406 215.21875 201.625 196.246094 212.878906 C 177.253906 224.148438 154.566406 223.632812 136.539062 213.628906 L 60.582031 258.714844 C 105.460938 307.183594 179.71875 319.605469 238.769531 284.550781 C 239.328125 284.242188 239.855469 283.867188 240.398438 283.546875 L 240.96875 288.25 Z M 289.90625 370.730469"/><path fill="#FF960B" d="M 196.246094 212.878906 C 177.253906 224.148438 154.566406 223.632812 136.539062 213.628906 L 71.335938 252.332031 C 115.40625 280.054688 173.125 282.78125 220.910156 254.433594 C 268.679688 226.082031 293.929688 174.121094 290.699219 122.164062 L 225.511719 160.835938 C 225.652344 181.441406 215.21875 201.625 196.246094 212.878906 Z M 196.246094 212.878906"/><path fill="#FFBE08" d="M 106.199219 162.535156 C 106.058594 141.890625 116.476562 121.734375 135.464844 110.480469 C 154.441406 99.210938 177.144531 99.726562 195.171875 109.726562 L 271.128906 64.640625 C 226.25 16.175781 151.980469 3.753906 92.941406 38.808594 C 33.875 73.835938 9.207031 144.964844 30.242188 207.578125 Z M 106.199219 162.535156"/><path fill="#FF960B" d="M 135.464844 110.480469 C 154.441406 99.210938 177.144531 99.726562 195.171875 109.726562 L 260.375 71.011719 C 216.304688 43.273438 158.585938 40.5625 110.800781 68.898438 C 63.03125 97.277344 37.769531 149.222656 40.996094 201.195312 L 106.199219 162.535156 C 106.058594 141.890625 116.476562 121.734375 135.464844 110.480469 Z M 135.464844 110.480469"/><path fill="#33363A" d="M 30.242188 211.851562 C 29.742188 211.851562 29.242188 211.765625 28.753906 211.585938 C 27.542969 211.125 26.613281 210.179688 26.195312 208.941406 C 4.199219 143.460938 31.355469 70.375 90.757812 35.109375 C 150.15625 -0.140625 227.335938 11.054688 274.257812 61.734375 C 275.132812 62.695312 275.539062 63.972656 275.355469 65.253906 C 275.164062 66.535156 274.410156 67.648438 273.296875 68.328125 L 197.355469 113.386719 C 196.050781 114.179688 194.421875 114.195312 193.101562 113.457031 C 175.78125 103.828125 154.539062 104.109375 137.652344 114.152344 C 120.75 124.167969 110.328125 142.683594 110.480469 162.492188 C 110.480469 164.007812 109.6875 165.414062 108.382812 166.195312 L 32.425781 211.25 C 31.757812 211.667969 31.007812 211.851562 30.242188 211.851562 Z M 165.722656 23.199219 C 141.433594 23.199219 117.007812 29.476562 95.125 42.480469 C 40.675781 74.769531 14.996094 140.804688 32.703125 201.152344 L 101.953125 160.058594 C 102.648438 138.191406 114.488281 117.9375 133.28125 106.777344 C 152.078125 95.648438 175.515625 94.941406 195.046875 104.832031 L 264.296875 63.722656 C 237.699219 37.140625 201.878906 23.199219 165.722656 23.199219 Z M 165.722656 23.199219"/><path fill="#FFBE08" d="M 192.710938 145.730469 C 201.515625 160.574219 196.621094 179.730469 181.789062 188.535156 C 166.960938 197.328125 147.804688 192.445312 139 177.601562 C 130.195312 162.785156 135.089844 143.601562 149.921875 134.824219 C 164.75 126.019531 183.90625 130.914062 192.710938 145.730469 Z M 192.710938 145.730469"/><path fill="#FF960B" d="M 139 177.601562 C 130.195312 162.773438 135.089844 143.601562 149.921875 134.824219 C 164.75 126.019531 183.90625 130.914062 192.710938 145.730469"/><path fill="#33363A" d="M 165.902344 197.1875 C 162.96875 197.1875 160.003906 196.824219 157.070312 196.074219 C 147.890625 193.722656 140.15625 187.9375 135.3125 179.785156 C 130.472656 171.632812 129.109375 162.089844 131.445312 152.910156 C 133.796875 143.714844 139.585938 135.980469 147.734375 131.136719 C 164.554688 121.164062 186.382812 126.714844 196.382812 143.558594 C 201.222656 151.726562 202.601562 161.253906 200.25 170.4375 C 197.914062 179.632812 192.125 187.351562 183.960938 192.195312 C 178.410156 195.503906 172.207031 197.1875 165.902344 197.1875 Z M 165.808594 134.726562 C 161.132812 134.726562 156.402344 135.9375 152.089844 138.496094 C 145.898438 142.15625 141.519531 148.027344 139.738281 155.007812 C 137.957031 161.980469 139 169.238281 142.671875 175.429688 C 146.34375 181.636719 152.214844 186.015625 159.183594 187.796875 C 166.167969 189.578125 173.417969 188.535156 179.605469 184.847656 C 185.796875 181.191406 190.191406 175.320312 191.972656 168.351562 C 193.753906 161.378906 192.710938 154.105469 189.023438 147.914062 C 184.003906 139.429688 175.015625 134.726562 165.808594 134.726562 Z M 165.808594 134.726562"/><path fill="#33363A" d="M 76.691406 218.859375 C 75.230469 218.859375 73.8125 218.109375 73.019531 216.761719 C 71.808594 214.730469 72.476562 212.128906 74.507812 210.902344 L 112.457031 188.394531 C 114.488281 187.199219 117.105469 187.867188 118.3125 189.882812 C 119.523438 191.929688 118.84375 194.542969 116.824219 195.742188 L 78.875 218.261719 C 78.179688 218.667969 77.429688 218.859375 76.691406 218.859375 Z M 76.691406 218.859375"/><path fill="#33363A" d="M 54.824219 231.8125 C 53.710938 231.8125 52.613281 231.351562 51.804688 230.558594 C 51.011719 229.78125 50.554688 228.683594 50.554688 227.554688 C 50.554688 226.429688 51.011719 225.328125 51.804688 224.523438 C 53.40625 222.964844 56.285156 222.964844 57.84375 224.523438 C 58.648438 225.328125 59.09375 226.429688 59.09375 227.554688 C 59.09375 228.683594 58.648438 229.769531 57.84375 230.558594 C 57.050781 231.351562 55.964844 231.8125 54.824219 231.8125 Z M 54.824219 231.8125"/><path fill="#33363A" d="M 34.917969 243.636719 C 33.804688 243.636719 32.71875 243.179688 31.882812 242.398438 C 31.089844 241.578125 30.632812 240.464844 30.632812 239.367188 C 30.632812 238.253906 31.089844 237.140625 31.882812 236.332031 C 33.511719 234.746094 36.335938 234.746094 37.921875 236.332031 C 38.726562 237.140625 39.1875 238.253906 39.1875 239.367188 C 39.1875 240.464844 38.726562 241.578125 37.921875 242.398438 C 37.140625 243.179688 36.015625 243.636719 34.917969 243.636719 Z M 34.917969 243.636719"/><path fill="#33363A" d="M 217.070312 135.5625 C 215.609375 135.5625 214.191406 134.808594 213.398438 133.476562 C 212.1875 131.429688 212.855469 128.800781 214.886719 127.605469 L 252.835938 105.109375 C 254.867188 103.886719 257.480469 104.554688 258.691406 106.597656 C 259.886719 108.628906 259.21875 111.230469 257.1875 112.441406 L 219.253906 134.964844 C 218.558594 135.367188 217.820312 135.5625 217.070312 135.5625 Z M 217.070312 135.5625"/><path fill="#33363A" d="M 276.875 100.089844 C 275.746094 100.089844 274.621094 99.613281 273.855469 98.835938 C 273.0625 98.015625 272.601562 96.917969 272.601562 95.804688 C 272.601562 94.664062 273.0625 93.5625 273.855469 92.757812 C 275.453125 91.15625 278.277344 91.15625 279.890625 92.757812 C 280.699219 93.5625 281.144531 94.664062 281.144531 95.804688 C 281.144531 96.917969 280.699219 98.015625 279.890625 98.835938 C 279.097656 99.613281 277.984375 100.089844 276.875 100.089844 Z M 276.875 100.089844"/><path fill="#33363A" d="M 296.78125 88.25 C 295.332031 88.25 293.902344 87.5 293.109375 86.164062 C 291.898438 84.144531 292.578125 81.515625 294.597656 80.292969 L 352.257812 46.085938 C 354.289062 44.886719 356.902344 45.542969 358.113281 47.574219 C 359.3125 49.617188 358.644531 52.21875 356.613281 53.445312 L 298.964844 87.652344 C 298.28125 88.070312 297.53125 88.25 296.78125 88.25 Z M 296.78125 88.25"/><path fill="#33363A" d="M 289.90625 375 C 288.417969 375 287.015625 374.207031 286.234375 372.914062 L 237.296875 290.433594 C 237.28125 290.390625 237.269531 290.378906 237.253906 290.351562 C 178.367188 323 103.402344 311.246094 57.453125 261.597656 C 56.578125 260.648438 56.171875 259.355469 56.355469 258.089844 C 56.535156 256.8125 57.285156 255.683594 58.398438 255.03125 L 134.355469 209.957031 C 135.660156 209.179688 137.273438 209.164062 138.609375 209.902344 C 155.914062 219.515625 177.171875 219.25 194.058594 209.234375 C 210.960938 199.203125 221.367188 180.675781 221.230469 160.867188 C 221.230469 159.347656 222.023438 157.929688 223.328125 157.179688 L 367.421875 71.640625 C 368.921875 70.75 370.800781 70.859375 372.191406 71.917969 C 373.570312 72.960938 374.183594 74.753906 373.722656 76.4375 L 294.039062 371.828125 C 293.59375 373.511719 292.191406 374.734375 290.492188 374.957031 C 290.296875 375 290.101562 375 289.90625 375 Z M 245.101562 286.832031 L 288.417969 359.835938 L 362.746094 84.367188 L 229.757812 163.273438 C 229.0625 185.15625 217.222656 205.421875 198.414062 216.578125 C 179.632812 227.707031 156.195312 228.40625 136.648438 218.527344 L 67.398438 259.621094 C 111.886719 304.09375 182.152344 313.179688 236.601562 280.878906 L 238.199219 279.875 C 239.4375 279.152344 240.96875 279.070312 242.277344 279.695312 C 243.582031 280.335938 244.472656 281.585938 244.640625 283.019531 Z M 245.101562 286.832031"/><path fill="#33363A" d="M 277.582031 280.847656 C 275.996094 280.847656 274.535156 279.972656 273.800781 278.566406 L 243.988281 222.003906 C 243.152344 220.433594 243.390625 218.5 244.585938 217.179688 C 245.769531 215.84375 247.660156 215.398438 249.328125 216.039062 L 277.582031 227.109375 L 305.824219 216.039062 C 307.492188 215.398438 309.382812 215.84375 310.578125 217.179688 C 311.761719 218.5 312 220.433594 311.164062 222.003906 L 281.367188 278.566406 C 280.628906 279.972656 279.167969 280.847656 277.582031 280.847656 Z M 256.910156 228.183594 L 277.582031 267.410156 L 298.253906 228.183594 L 279.140625 235.679688 C 278.140625 236.070312 277.027344 236.070312 276.023438 235.679688 Z M 256.910156 228.183594"/></svg>