<svg xmlns="http://www.w3.org/2000/svg" width="375" viewBox="0 0 375 375" height="375" version="1.0"><defs><clipPath id="a"><path d="M 202 116 L 375 116 L 375 281.417969 L 202 281.417969 Z M 202 116"/></clipPath></defs><path fill="#FFBE08" d="M 329.007812 279.101562 L 372.320312 118.988281 L 294.015625 165.335938 L 294.015625 165.34375 C 294.089844 176.507812 288.417969 187.449219 278.109375 193.546875 C 267.789062 199.65625 255.457031 199.378906 245.660156 193.957031 L 204.382812 218.394531 C 228.773438 244.660156 269.125 251.394531 301.21875 232.394531 C 301.519531 232.226562 301.808594 232.023438 302.101562 231.851562 L 302.414062 234.398438 Z M 329.007812 279.101562"/><path fill="#FF960B" d="M 278.109375 193.546875 C 267.789062 199.65625 255.457031 199.378906 245.660156 193.957031 L 210.226562 214.933594 C 234.175781 229.957031 265.542969 231.4375 291.511719 216.070312 C 317.472656 200.703125 331.195312 172.542969 329.441406 144.382812 L 294.015625 165.34375 C 294.089844 176.507812 288.417969 187.449219 278.109375 193.546875 Z M 278.109375 193.546875"/><path fill="#FFBE08" d="M 229.171875 166.261719 C 229.097656 155.074219 234.757812 144.148438 245.078125 138.046875 C 255.390625 131.941406 267.726562 132.21875 277.527344 137.640625 L 318.804688 113.203125 C 294.414062 86.933594 254.050781 80.203125 221.96875 99.203125 C 189.867188 118.1875 176.464844 156.738281 187.894531 190.675781 Z M 229.171875 166.261719"/><path fill="#FF960B" d="M 245.078125 138.046875 C 255.390625 131.941406 267.726562 132.21875 277.527344 137.640625 L 312.960938 116.65625 C 289.007812 101.625 257.644531 100.152344 231.675781 115.511719 C 205.714844 130.894531 191.984375 159.046875 193.738281 187.214844 L 229.171875 166.261719 C 229.097656 155.074219 234.757812 144.148438 245.078125 138.046875 Z M 245.078125 138.046875"/><path fill="#33363A" d="M 187.894531 192.992188 C 187.625 192.992188 187.351562 192.945312 187.085938 192.847656 C 186.429688 192.597656 185.921875 192.085938 185.695312 191.414062 C 173.742188 155.925781 188.5 116.3125 220.78125 97.195312 C 253.0625 78.089844 295.003906 84.160156 320.503906 111.628906 C 320.980469 112.148438 321.199219 112.84375 321.101562 113.535156 C 320.996094 114.230469 320.585938 114.832031 319.984375 115.203125 L 278.714844 139.625 C 278.003906 140.054688 277.117188 140.0625 276.398438 139.660156 C 266.988281 134.445312 255.445312 134.59375 246.265625 140.039062 C 237.082031 145.46875 231.417969 155.503906 231.5 166.238281 C 231.5 167.0625 231.070312 167.824219 230.359375 168.246094 L 189.082031 192.667969 C 188.71875 192.894531 188.3125 192.992188 187.894531 192.992188 Z M 261.523438 90.742188 C 248.320312 90.742188 235.046875 94.144531 223.15625 101.191406 C 193.566406 118.691406 179.609375 154.484375 189.234375 187.191406 L 226.867188 164.921875 C 227.246094 153.066406 233.679688 142.089844 243.890625 136.042969 C 254.105469 130.011719 266.84375 129.625 277.457031 134.988281 L 315.089844 112.707031 C 300.636719 98.296875 281.167969 90.742188 261.523438 90.742188 Z M 261.523438 90.742188"/><path fill="#FFBE08" d="M 276.1875 157.152344 C 280.972656 165.199219 278.3125 175.582031 270.253906 180.355469 C 262.195312 185.121094 251.785156 182.472656 247 174.429688 C 242.214844 166.398438 244.875 156 252.933594 151.242188 C 260.992188 146.46875 271.402344 149.125 276.1875 157.152344 Z M 276.1875 157.152344"/><path fill="#FF960B" d="M 247 174.429688 C 242.214844 166.390625 244.875 156 252.933594 151.242188 C 260.992188 146.46875 271.402344 149.125 276.1875 157.152344"/><path fill="#33363A" d="M 261.621094 185.042969 C 260.023438 185.042969 258.414062 184.847656 256.820312 184.441406 C 251.828125 183.167969 247.625 180.03125 244.996094 175.613281 C 242.363281 171.191406 241.625 166.019531 242.894531 161.042969 C 244.171875 156.0625 247.316406 151.867188 251.746094 149.246094 C 260.886719 143.839844 272.75 146.847656 278.183594 155.976562 C 280.816406 160.402344 281.5625 165.570312 280.285156 170.542969 C 279.015625 175.527344 275.871094 179.714844 271.433594 182.335938 C 268.417969 184.132812 265.042969 185.042969 261.621094 185.042969 Z M 261.566406 151.191406 C 259.027344 151.191406 256.457031 151.847656 254.113281 153.234375 C 250.75 155.214844 248.367188 158.398438 247.398438 162.183594 C 246.433594 165.960938 247 169.894531 248.996094 173.25 C 250.992188 176.613281 254.179688 178.988281 257.96875 179.953125 C 261.761719 180.917969 265.703125 180.355469 269.066406 178.355469 C 272.429688 176.375 274.820312 173.191406 275.789062 169.414062 C 276.753906 165.636719 276.1875 161.691406 274.183594 158.335938 C 271.457031 153.738281 266.570312 151.191406 261.566406 151.191406 Z M 261.566406 151.191406"/><path fill="#33363A" d="M 213.136719 196.789062 C 212.34375 196.789062 211.574219 196.382812 211.140625 195.652344 C 210.484375 194.550781 210.847656 193.140625 211.949219 192.476562 L 232.574219 180.277344 C 233.679688 179.628906 235.101562 179.992188 235.757812 181.085938 C 236.414062 182.195312 236.042969 183.609375 234.949219 184.257812 L 214.324219 196.464844 C 213.945312 196.683594 213.539062 196.789062 213.136719 196.789062 Z M 213.136719 196.789062"/><path fill="#33363A" d="M 201.253906 203.8125 C 200.648438 203.8125 200.050781 203.5625 199.613281 203.132812 C 199.183594 202.710938 198.933594 202.113281 198.933594 201.503906 C 198.933594 200.894531 199.183594 200.296875 199.613281 199.859375 C 200.484375 199.015625 202.046875 199.015625 202.894531 199.859375 C 203.332031 200.296875 203.574219 200.894531 203.574219 201.503906 C 203.574219 202.113281 203.332031 202.703125 202.894531 203.132812 C 202.464844 203.5625 201.875 203.8125 201.253906 203.8125 Z M 201.253906 203.8125"/><path fill="#33363A" d="M 190.433594 210.21875 C 189.832031 210.21875 189.242188 209.96875 188.789062 209.546875 C 188.355469 209.105469 188.105469 208.5 188.105469 207.90625 C 188.105469 207.300781 188.355469 206.699219 188.789062 206.261719 C 189.671875 205.402344 191.207031 205.402344 192.070312 206.261719 C 192.507812 206.699219 192.757812 207.300781 192.757812 207.90625 C 192.757812 208.5 192.507812 209.105469 192.070312 209.546875 C 191.644531 209.96875 191.03125 210.21875 190.433594 210.21875 Z M 190.433594 210.21875"/><path fill="#33363A" d="M 289.425781 151.640625 C 288.632812 151.640625 287.859375 151.234375 287.429688 150.511719 C 286.773438 149.402344 287.132812 147.976562 288.238281 147.328125 L 308.863281 135.136719 C 309.964844 134.472656 311.386719 134.835938 312.042969 135.945312 C 312.695312 137.046875 312.332031 138.457031 311.226562 139.109375 L 290.613281 151.316406 C 290.234375 151.535156 289.832031 151.640625 289.425781 151.640625 Z M 289.425781 151.640625"/><path fill="#33363A" d="M 321.925781 132.414062 C 321.3125 132.414062 320.699219 132.160156 320.285156 131.738281 C 319.855469 131.292969 319.605469 130.695312 319.605469 130.09375 C 319.605469 129.476562 319.855469 128.878906 320.285156 128.441406 C 321.15625 127.574219 322.6875 127.574219 323.566406 128.441406 C 324.003906 128.878906 324.246094 129.476562 324.246094 130.09375 C 324.246094 130.695312 324.003906 131.292969 323.566406 131.738281 C 323.136719 132.160156 322.53125 132.414062 321.925781 132.414062 Z M 321.925781 132.414062"/><path fill="#33363A" d="M 332.742188 126 C 331.957031 126 331.179688 125.59375 330.746094 124.867188 C 330.089844 123.773438 330.460938 122.351562 331.558594 121.6875 L 362.894531 103.144531 C 363.996094 102.496094 365.417969 102.851562 366.074219 103.953125 C 366.726562 105.0625 366.363281 106.472656 365.257812 107.132812 L 333.929688 125.675781 C 333.558594 125.902344 333.152344 126 332.742188 126 Z M 332.742188 126"/><g clip-path="url(#a)"><path fill="#33363A" d="M 329.007812 281.417969 C 328.199219 281.417969 327.4375 280.988281 327.011719 280.289062 L 300.417969 235.582031 C 300.410156 235.5625 300.402344 235.554688 300.394531 235.539062 C 268.394531 253.234375 227.652344 246.863281 202.683594 219.953125 C 202.207031 219.441406 201.988281 218.738281 202.085938 218.054688 C 202.183594 217.359375 202.59375 216.75 203.195312 216.394531 L 244.472656 191.964844 C 245.183594 191.542969 246.0625 191.535156 246.789062 191.933594 C 256.191406 197.144531 267.742188 197.003906 276.921875 191.574219 C 286.105469 186.136719 291.761719 176.09375 291.6875 165.355469 C 291.6875 164.535156 292.117188 163.765625 292.828125 163.359375 L 371.132812 116.996094 C 371.949219 116.515625 372.96875 116.574219 373.726562 117.148438 C 374.472656 117.714844 374.808594 118.6875 374.558594 119.597656 L 331.253906 279.699219 C 331.011719 280.613281 330.25 281.273438 329.328125 281.394531 C 329.222656 281.417969 329.113281 281.417969 329.007812 281.417969 Z M 304.660156 233.628906 L 328.199219 273.199219 L 368.59375 123.894531 L 296.320312 166.660156 C 295.941406 178.523438 289.507812 189.507812 279.289062 195.554688 C 269.082031 201.585938 256.34375 201.964844 245.722656 196.609375 L 208.089844 218.882812 C 232.265625 242.988281 270.449219 247.910156 300.039062 230.402344 L 300.910156 229.859375 C 301.582031 229.46875 302.414062 229.421875 303.125 229.761719 C 303.835938 230.109375 304.320312 230.789062 304.410156 231.566406 Z M 304.660156 233.628906"/></g><path fill="#33363A" d="M 322.3125 230.386719 C 321.449219 230.386719 320.65625 229.914062 320.253906 229.152344 L 304.054688 198.496094 C 303.601562 197.644531 303.730469 196.59375 304.378906 195.878906 C 305.019531 195.15625 306.050781 194.914062 306.957031 195.261719 L 322.3125 201.261719 L 337.65625 195.261719 C 338.566406 194.914062 339.59375 195.15625 340.242188 195.878906 C 340.886719 196.59375 341.015625 197.644531 340.5625 198.496094 L 324.367188 229.152344 C 323.964844 229.914062 323.171875 230.386719 322.3125 230.386719 Z M 311.078125 201.84375 L 322.3125 223.105469 L 333.546875 201.84375 L 323.15625 205.90625 C 322.613281 206.117188 322.007812 206.117188 321.464844 205.90625 Z M 311.078125 201.84375"/><g fill="#494949"><g><g><path d="M 25.59375 -27.992188 C 23.589844 -32.878906 19.054688 -35.1875 13.125 -34.402344 C 9.417969 -34.011719 6.976562 -32.265625 5.800781 -31.4375 C 5.1875 -31.003906 4.972656 -30.828125 4.664062 -30.957031 L 4.402344 -31.046875 L 4.359375 -31.351562 C 4.230469 -32.878906 3.664062 -33.09375 3.050781 -33.09375 C 3.050781 -33.09375 3.007812 -33.09375 3.007812 -33.09375 C 2.398438 -33.09375 1.789062 -32.878906 1.746094 -31.351562 C 1.746094 -27.425781 1.917969 -23.503906 2.136719 -19.664062 C 2.265625 -16.742188 2.441406 -13.777344 2.484375 -10.855469 C 2.484375 -9.898438 2.484375 -8.9375 2.484375 -8.023438 C 2.441406 -5.886719 2.441406 -3.664062 2.703125 -1.484375 C 2.789062 -0.785156 3.183594 0.0429688 4.316406 0 C 4.664062 0 5.667969 -0.0429688 5.84375 -1.65625 C 5.886719 -2.050781 5.84375 -2.441406 5.84375 -2.878906 C 5.800781 -3.140625 5.800781 -3.359375 5.800781 -3.617188 C 5.800781 -5.449219 5.800781 -7.28125 5.800781 -9.113281 L 5.800781 -11.859375 L 6.367188 -11.640625 C 11.640625 -9.722656 16.527344 -10.378906 21.367188 -13.777344 C 26.730469 -17.484375 28.082031 -22.019531 25.59375 -27.992188 Z M 22.28125 -21.539062 C 22.195312 -20.492188 21.628906 -19.316406 20.929688 -18.617188 C 18.183594 -15.871094 15.128906 -14.476562 12.035156 -14.476562 C 10.203125 -14.476562 8.414062 -14.957031 6.585938 -15.914062 C 5.886719 -16.265625 6.367188 -23.457031 6.410156 -23.546875 C 6.847656 -26.773438 7.457031 -27.820312 9.941406 -29.34375 C 12.558594 -30.957031 15.914062 -31.046875 18.488281 -29.5625 C 21.277344 -27.949219 22.542969 -25.246094 22.28125 -21.539062 Z M 22.28125 -21.539062" transform="translate(83.905 284.55)"/></g></g></g><g fill="#494949"><g><g><path d="M 6.191406 -5.234375 C 8.894531 -2.746094 12.121094 -1.351562 15.609375 -0.4375 C 20.84375 0.914062 25.332031 -0.785156 29.214844 -4.316406 C 30.171875 -5.1875 31.046875 -6.234375 31.832031 -7.28125 C 36.410156 -13.429688 36.105469 -22.457031 31.132812 -28.210938 C 28.429688 -31.394531 24.636719 -32.832031 20.886719 -33.96875 C 14.476562 -35.84375 8.199219 -33.007812 4.796875 -27.296875 C 2.789062 -23.9375 1.832031 -20.277344 1.789062 -16.875 C 1.570312 -11.992188 2.964844 -8.285156 6.191406 -5.234375 Z M 8.328125 -25.378906 C 10.074219 -28.515625 12.777344 -30.304688 16.308594 -30.652344 C 16.960938 -30.742188 17.703125 -30.261719 18.355469 -29.957031 C 20.101562 -29.082031 21.757812 -28.039062 23.546875 -27.296875 C 27.164062 -25.769531 29.519531 -23.152344 30.042969 -19.316406 C 31.003906 -12.46875 27.078125 -6.496094 20.710938 -4.796875 C 16.21875 -3.617188 8.242188 -7.628906 6.671875 -12.035156 C 6.191406 -13.429688 6.0625 -15 5.800781 -16.527344 C 6.015625 -19.707031 6.800781 -22.628906 8.328125 -25.378906 Z M 8.328125 -25.378906" transform="translate(112.51 284.55)"/></g></g></g><g fill="#494949"><g><g><path d="M 5.84375 -20.800781 C 5.753906 -24.332031 5.667969 -27.90625 5.582031 -31.4375 C 5.492188 -33.53125 4.882812 -34.492188 3.75 -34.578125 C 2.484375 -34.621094 1.832031 -33.617188 1.832031 -31.394531 C 1.789062 -22.457031 1.746094 -13.5625 1.789062 -4.621094 C 1.789062 -3.359375 2.222656 -2.09375 2.617188 -0.871094 C 2.746094 -0.480469 3.3125 0 3.664062 0 C 4.097656 0 4.710938 -0.390625 4.882812 -0.785156 C 5.320312 -1.875 5.753906 -3.050781 5.84375 -4.230469 C 5.972656 -7.152344 5.886719 -10.074219 5.929688 -13.039062 C 5.929688 -14.5625 6.277344 -14.824219 7.71875 -14.214844 C 13.082031 -12.035156 18.269531 -9.550781 22.980469 -6.105469 C 23.765625 -5.492188 24.636719 -4.972656 25.550781 -4.535156 C 26.859375 -3.878906 28.210938 -4.097656 28.691406 -5.144531 C 29.34375 -6.367188 28.820312 -7.414062 27.777344 -8.109375 C 24.375 -10.289062 21.015625 -12.515625 17.527344 -14.519531 C 15.4375 -15.742188 13.167969 -16.570312 10.769531 -17.660156 C 12.425781 -19.011719 13.953125 -20.320312 15.566406 -21.582031 C 18.402344 -23.808594 21.234375 -25.945312 24.070312 -28.210938 C 25.421875 -29.300781 25.683594 -30.566406 24.984375 -31.570312 C 24.242188 -32.617188 22.9375 -32.789062 21.453125 -32.003906 C 20.886719 -31.742188 20.320312 -31.394531 19.839844 -31.003906 C 16.132812 -27.90625 12.425781 -24.765625 8.722656 -21.671875 C 7.847656 -20.886719 7.019531 -20.058594 5.929688 -19.054688 C 5.886719 -19.882812 5.886719 -20.320312 5.84375 -20.800781 Z M 5.84375 -20.800781" transform="translate(149.398 284.55)"/></g></g></g><g fill="#494949"><g><g><path d="M 21.496094 -5.320312 C 21.148438 -6.496094 19.96875 -6.800781 18.007812 -6.324219 C 15.085938 -5.582031 12.164062 -4.882812 9.242188 -4.1875 C 7.238281 -3.707031 6.234375 -4.273438 6.191406 -6.324219 C 6.0625 -10.027344 6.148438 -13.734375 6.148438 -17.574219 C 6.277344 -17.574219 6.453125 -17.617188 6.671875 -17.574219 C 10.507812 -17.222656 10.464844 -17.789062 14.34375 -17.484375 C 15 -17.441406 14.867188 -17.441406 15.390625 -17.789062 C 16.003906 -18.226562 16.742188 -19.054688 16.742188 -19.707031 C 16.742188 -20.320312 15.957031 -21.191406 15.304688 -21.496094 C 14.519531 -21.800781 14.476562 -21.671875 13.605469 -21.671875 C 9.8125 -21.671875 9.855469 -20.710938 6.105469 -20.710938 C 6.105469 -23.675781 6.0625 -26.46875 6.191406 -29.257812 C 6.191406 -29.738281 6.976562 -30.433594 7.5 -30.523438 C 9.765625 -30.957031 12.078125 -31.175781 14.34375 -31.480469 C 15.566406 -31.65625 16.742188 -31.789062 17.921875 -32.046875 C 18.3125 -32.136719 18.617188 -32.660156 18.96875 -33.007812 C 18.617188 -33.355469 18.269531 -33.792969 17.878906 -34.054688 C 17.660156 -34.230469 17.3125 -34.273438 17.003906 -34.273438 C 13.953125 -34.273438 10.902344 -34.445312 7.847656 -34.230469 C 3.835938 -33.921875 2.355469 -32.484375 2.179688 -28.429688 C 1.917969 -21.453125 1.875 -14.476562 1.746094 -7.5 C 1.746094 -6.453125 1.960938 -5.40625 2.222656 -4.359375 C 3.007812 -1.222656 5.710938 0.742188 8.894531 0.128906 C 12.382812 -0.523438 15.828125 -1.484375 19.230469 -2.441406 C 21.105469 -2.964844 21.84375 -4.140625 21.496094 -5.320312 Z M 10.289062 -39.375 C 10.683594 -39.59375 11.46875 -39.898438 11.949219 -40.464844 C 13.082031 -41.773438 14.085938 -43.253906 15.042969 -44.695312 C 15.871094 -45.914062 15.652344 -47.09375 14.605469 -47.789062 C 13.648438 -48.398438 12.425781 -48.183594 11.6875 -47.046875 C 10.550781 -45.433594 9.460938 -43.777344 8.503906 -42.035156 C 7.71875 -40.59375 8.414062 -39.375 10.289062 -39.375 Z M 10.289062 -39.375" transform="translate(180.226 284.55)"/></g></g></g><g fill="#494949"><g><g><path d="M 4.796875 -28.082031 C 4.839844 -20.539062 4.882812 -12.992188 4.882812 -5.449219 C 4.882812 -4.753906 4.796875 -4.097656 4.621094 -3.445312 C 4.140625 -1.746094 4.839844 -0.347656 6.585938 -0.0859375 C 7.890625 0.0859375 9.332031 0.128906 10.550781 -0.21875 C 16.351562 -1.789062 21.582031 -4.535156 25.855469 -8.722656 C 31.4375 -14.214844 31.089844 -22.847656 25.378906 -28.210938 C 19.449219 -33.792969 12.46875 -35.667969 4.492188 -33.835938 C 3.269531 -33.574219 1.699219 -33.402344 1.746094 -31.699219 C 1.832031 -29.824219 3.445312 -30.085938 4.796875 -29.914062 C 4.796875 -29.214844 4.796875 -28.648438 4.796875 -28.082031 Z M 8.460938 -27.644531 C 8.414062 -28.472656 8.460938 -29.34375 8.460938 -30.347656 C 11.46875 -30.566406 14.085938 -29.738281 16.699219 -28.777344 C 19.402344 -27.730469 21.539062 -25.855469 23.285156 -23.589844 C 25.550781 -20.667969 25.421875 -15.871094 22.675781 -12.90625 C 19.097656 -9.027344 14.34375 -7.152344 9.550781 -5.144531 C 7.761719 -12.730469 8.722656 -20.230469 8.460938 -27.644531 Z M 8.460938 -27.644531" transform="translate(203.598 284.55)"/></g></g></g><g fill="#494949"><g><g><path d="M 6.671875 -17.789062 C 10.507812 -17.441406 10.464844 -18.007812 14.300781 -17.703125 C 15 -17.617188 14.867188 -17.660156 15.390625 -18.007812 C 16.003906 -18.445312 16.742188 -19.273438 16.742188 -19.925781 C 16.742188 -20.539062 15.957031 -21.410156 15.304688 -21.671875 C 14.519531 -22.019531 14.476562 -21.890625 13.605469 -21.890625 C 9.8125 -21.890625 9.855469 -20.929688 6.105469 -20.929688 C 6.105469 -23.894531 6.0625 -26.683594 6.191406 -29.476562 C 6.191406 -29.914062 6.976562 -30.652344 7.5 -30.742188 C 9.765625 -31.132812 12.078125 -31.394531 14.34375 -31.699219 C 15.566406 -31.832031 16.742188 -31.960938 17.921875 -32.265625 C 18.3125 -32.355469 18.617188 -32.878906 18.96875 -33.183594 C 18.617188 -33.574219 18.269531 -33.96875 17.878906 -34.273438 C 17.660156 -34.445312 17.3125 -34.445312 17.003906 -34.492188 C 13.953125 -34.492188 10.902344 -34.664062 7.847656 -34.445312 C 3.835938 -34.140625 2.355469 -32.703125 2.179688 -28.648438 C 1.917969 -21.671875 1.875 -14.695312 1.746094 -7.71875 C 1.746094 -6.671875 1.960938 -5.625 2.222656 -4.578125 C 3.007812 -1.4375 5.710938 0.523438 8.894531 -0.0859375 C 12.382812 -0.742188 15.828125 -1.699219 19.230469 -2.660156 C 21.105469 -3.183594 21.84375 -4.359375 21.496094 -5.539062 C 21.148438 -6.714844 19.96875 -7.019531 18.007812 -6.539062 C 15.085938 -5.800781 12.164062 -5.101562 9.242188 -4.402344 C 7.238281 -3.925781 6.234375 -4.492188 6.191406 -6.539062 C 6.0625 -10.246094 6.148438 -13.953125 6.148438 -17.789062 C 6.277344 -17.789062 6.453125 -17.789062 6.671875 -17.789062 Z M 6.671875 -17.789062" transform="translate(235.254 284.55)"/></g></g></g><g fill="#494949"><g><g><path d="M 19.96875 -3.574219 C 20.539062 -2.617188 21.191406 -1.65625 21.933594 -0.785156 C 22.71875 0.0429688 23.71875 0.304688 24.765625 -0.347656 C 25.769531 -1.046875 25.8125 -2.050781 25.464844 -3.097656 C 25.246094 -3.664062 24.941406 -4.140625 24.679688 -4.621094 C 22.628906 -8.460938 20.625 -12.296875 18.53125 -16.132812 C 18.140625 -16.875 18.140625 -17.398438 18.707031 -18.050781 C 21.539062 -21.539062 24.332031 -25.070312 27.207031 -28.558594 C 28.472656 -30.128906 28.820312 -31.570312 27.90625 -32.441406 C 26.992188 -33.3125 25.507812 -32.964844 24.070312 -31.308594 C 22.0625 -28.996094 20.144531 -26.640625 18.226562 -24.242188 C 17.441406 -23.328125 16.742188 -22.324219 15.871094 -21.277344 C 15.480469 -21.933594 15.21875 -22.414062 14.867188 -22.847656 C 12.296875 -26.378906 9.722656 -29.957031 7.0625 -33.488281 C 6.367188 -34.445312 5.320312 -34.925781 4.230469 -34.183594 C 3.007812 -33.402344 3.226562 -32.222656 3.835938 -31.175781 C 4.359375 -30.21875 5.015625 -29.34375 5.625 -28.429688 C 7.675781 -25.332031 9.636719 -22.152344 11.730469 -19.097656 C 12.601562 -17.789062 12.558594 -16.832031 11.511719 -15.566406 C 8.414062 -11.640625 5.449219 -7.585938 2.441406 -3.574219 C 1.832031 -2.746094 1.351562 -1.746094 2.265625 -0.914062 C 3.269531 -0.0429688 4.140625 -0.742188 4.839844 -1.484375 C 6.714844 -3.53125 8.546875 -5.625 10.378906 -7.761719 C 11.859375 -9.503906 13.253906 -11.25 14.824219 -13.167969 C 16.613281 -9.855469 18.269531 -6.714844 19.96875 -3.574219 Z M 19.96875 -3.574219" transform="translate(258.626 284.55)"/></g></g></g><g fill="#8B5E3B"><g><g><path d="M 4.21875 -3.566406 C 6.0625 -1.871094 8.257812 -0.921875 10.636719 -0.296875 C 14.203125 0.625 17.261719 -0.535156 19.90625 -2.941406 C 20.558594 -3.535156 21.152344 -4.25 21.6875 -4.960938 C 24.808594 -9.152344 24.601562 -15.300781 21.214844 -19.222656 C 19.371094 -21.390625 16.785156 -22.371094 14.230469 -23.144531 C 9.863281 -24.421875 5.585938 -22.492188 3.269531 -18.597656 C 1.902344 -16.3125 1.246094 -13.816406 1.21875 -11.496094 C 1.070312 -8.171875 2.019531 -5.644531 4.21875 -3.566406 Z M 5.675781 -17.292969 C 6.863281 -19.429688 8.707031 -20.648438 11.113281 -20.886719 C 11.558594 -20.945312 12.0625 -20.617188 12.507812 -20.410156 C 13.695312 -19.816406 14.824219 -19.105469 16.042969 -18.597656 C 18.507812 -17.558594 20.113281 -15.777344 20.46875 -13.160156 C 21.125 -8.496094 18.449219 -4.425781 14.113281 -3.269531 C 11.050781 -2.464844 5.617188 -5.199219 4.546875 -8.199219 C 4.21875 -9.152344 4.128906 -10.21875 3.953125 -11.261719 C 4.101562 -13.429688 4.636719 -15.417969 5.675781 -17.292969 Z M 5.675781 -17.292969" transform="translate(83.435 236.944)"/></g></g></g><g fill="#8B5E3B"><g><g><path d="M 12.003906 -10.070312 C 11.527344 -11.199219 10.605469 -12.121094 9.476562 -12.507812 C 7.25 -13.28125 5.734375 -11.972656 4.277344 -10.785156 C 3.863281 -10.429688 3.566406 -9.921875 3.058594 -9.328125 C 3 -10.160156 3.03125 -10.816406 2.882812 -11.4375 C 2.851562 -11.527344 2.824219 -11.617188 2.734375 -11.707031 C 2.40625 -12.09375 1.84375 -12.09375 1.574219 -11.648438 C 1.515625 -11.585938 1.484375 -11.527344 1.457031 -11.4375 C 1.335938 -10.816406 1.335938 -10.160156 1.335938 -9.535156 C 1.277344 -7.457031 1.246094 -5.40625 1.1875 -3.328125 C 1.1875 -2.675781 1.484375 -2.199219 2.167969 -2.109375 C 2.882812 -1.992188 3.296875 -2.375 3.503906 -3.03125 C 3.625 -3.328125 3.59375 -3.683594 3.714844 -3.953125 C 4.367188 -5.527344 4.933594 -7.160156 5.765625 -8.644531 C 6.121094 -9.328125 6.953125 -9.863281 7.695312 -10.25 C 8.4375 -10.667969 9.328125 -10.339844 9.566406 -9.507812 C 9.894531 -8.527344 10.042969 -7.457031 10.191406 -6.417969 C 10.367188 -5.109375 10.457031 -3.804688 10.636719 -2.527344 C 10.753906 -1.902344 11.113281 -1.367188 11.855469 -1.394531 C 12.597656 -1.457031 12.894531 -1.992188 12.953125 -2.644531 C 13.160156 -5.199219 13.011719 -7.726562 12.003906 -10.070312 Z M 12.003906 -10.070312" transform="translate(111.54 236.944)"/></g></g></g><g fill="#8B5E3B"><g><g><path d="M 3.59375 -9.773438 C 3.535156 -12.449219 3.503906 -15.09375 3.417969 -17.738281 C 3.417969 -18.332031 3.328125 -18.957031 3.089844 -19.488281 C 2.972656 -19.789062 2.464844 -20.054688 2.140625 -20.054688 C 1.902344 -20.054688 1.574219 -19.609375 1.457031 -19.3125 C 1.308594 -19.015625 1.335938 -18.628906 1.335938 -18.273438 C 1.335938 -15.6875 1.160156 -4.992188 1.21875 -2.199219 C 1.21875 -1.632812 1.394531 -1.011719 1.664062 -0.476562 C 2.109375 0.296875 3.058594 0.265625 3.386719 -0.566406 C 3.625 -1.1875 3.742188 -1.929688 3.714844 -2.613281 C 3.714844 -5.019531 3.625 -7.398438 3.59375 -9.773438 Z M 3.59375 -9.773438" transform="translate(128.772 236.944)"/></g></g></g><g fill="#8B5E3B"><g><g><path d="M 2.824219 -12.210938 C 1.929688 -12.300781 1.753906 -11.558594 1.695312 -10.875 C 1.515625 -8.050781 1.367188 -5.230469 1.21875 -2.40625 C 1.1875 -2.167969 1.1875 -1.84375 1.335938 -1.664062 C 1.632812 -1.308594 2.050781 -0.742188 2.4375 -0.742188 C 2.824219 -0.742188 3.296875 -1.246094 3.535156 -1.664062 C 3.742188 -1.960938 3.714844 -2.464844 3.714844 -2.851562 C 3.714844 -4.101562 3.714844 -5.347656 3.714844 -6.597656 C 3.714844 -6.597656 3.714844 -6.597656 3.742188 -6.597656 C 3.742188 -7.960938 3.742188 -9.328125 3.714844 -10.695312 C 3.714844 -11.347656 3.742188 -12.121094 2.824219 -12.210938 Z M 3.089844 -17.527344 C 2.375 -17.558594 1.574219 -16.785156 1.546875 -15.984375 C 1.515625 -15.09375 2.140625 -14.972656 2.734375 -14.914062 C 3.714844 -14.886719 4.25 -15.300781 4.277344 -16.074219 C 4.335938 -16.847656 3.804688 -17.5 3.089844 -17.527344 Z M 3.089844 -17.527344" transform="translate(136.706 236.944)"/></g></g></g><g fill="#8B5E3B"><g><g><path d="M 12.003906 -10.070312 C 11.527344 -11.199219 10.605469 -12.121094 9.476562 -12.507812 C 7.25 -13.28125 5.734375 -11.972656 4.277344 -10.785156 C 3.863281 -10.429688 3.566406 -9.921875 3.058594 -9.328125 C 3 -10.160156 3.03125 -10.816406 2.882812 -11.4375 C 2.851562 -11.527344 2.824219 -11.617188 2.734375 -11.707031 C 2.40625 -12.09375 1.84375 -12.09375 1.574219 -11.648438 C 1.515625 -11.585938 1.484375 -11.527344 1.457031 -11.4375 C 1.335938 -10.816406 1.335938 -10.160156 1.335938 -9.535156 C 1.277344 -7.457031 1.246094 -5.40625 1.1875 -3.328125 C 1.1875 -2.675781 1.484375 -2.199219 2.167969 -2.109375 C 2.882812 -1.992188 3.296875 -2.375 3.503906 -3.03125 C 3.625 -3.328125 3.59375 -3.683594 3.714844 -3.953125 C 4.367188 -5.527344 4.933594 -7.160156 5.765625 -8.644531 C 6.121094 -9.328125 6.953125 -9.863281 7.695312 -10.25 C 8.4375 -10.667969 9.328125 -10.339844 9.566406 -9.507812 C 9.894531 -8.527344 10.042969 -7.457031 10.191406 -6.417969 C 10.367188 -5.109375 10.457031 -3.804688 10.636719 -2.527344 C 10.753906 -1.902344 11.113281 -1.367188 11.855469 -1.394531 C 12.597656 -1.457031 12.894531 -1.992188 12.953125 -2.644531 C 13.160156 -5.199219 13.011719 -7.726562 12.003906 -10.070312 Z M 12.003906 -10.070312" transform="translate(145.204 236.944)"/></g></g></g><g fill="#8B5E3B"><g><g><path d="M 4.039062 -6.980469 C 5.585938 -7.011719 7.101562 -7.011719 8.644531 -7.042969 C 10.578125 -7.101562 11.734375 -7.875 12.09375 -9.238281 C 12.597656 -11.347656 11.46875 -13.546875 9.359375 -14.46875 C 7.128906 -15.449219 5.050781 -14.972656 3.59375 -13.132812 C 1.929688 -11.050781 1.128906 -8.675781 1.21875 -6.089844 C 1.277344 -3.742188 2.4375 -1.902344 4.636719 -0.773438 C 6.863281 0.355469 9.179688 0.238281 11.378906 -0.921875 C 11.765625 -1.128906 12.179688 -1.78125 12.09375 -2.109375 C 12.003906 -2.4375 11.289062 -2.761719 10.875 -2.792969 C 10.042969 -2.851562 9.210938 -2.644531 8.40625 -2.554688 C 5.675781 -2.257812 3.566406 -4.277344 3.890625 -6.894531 C 3.980469 -6.953125 4.011719 -6.980469 4.039062 -6.980469 Z M 5.941406 -12.179688 C 6.683594 -12.863281 7.785156 -12.835938 8.824219 -12.210938 C 9.566406 -11.734375 10.160156 -10.457031 9.804688 -9.746094 C 9.65625 -9.449219 9.152344 -9.179688 8.792969 -9.152344 C 7.277344 -9.003906 5.765625 -8.972656 4.128906 -8.914062 C 4.515625 -10.160156 4.992188 -11.320312 5.941406 -12.179688 Z M 5.941406 -12.179688" transform="translate(162.437 236.944)"/></g></g></g></svg>