<svg xmlns="http://www.w3.org/2000/svg" width="375" viewBox="0 0 375 300" height="300" version="1.0"><defs><clipPath id="a"><path d="M 138 52 L 375 52 L 375 278.25 L 138 278.25 Z M 138 52"/></clipPath></defs><path fill="#FFBE08" d="M 312.054688 275.082031 L 371.144531 55.882812 L 264.3125 119.332031 L 264.3125 119.339844 C 264.414062 134.628906 256.679688 149.605469 242.609375 157.957031 C 228.53125 166.316406 211.710938 165.933594 198.34375 158.515625 L 142.03125 191.96875 C 175.304688 227.929688 230.359375 237.148438 274.140625 211.136719 C 274.554688 210.910156 274.945312 210.628906 275.347656 210.394531 L 275.769531 213.882812 Z M 312.054688 275.082031"/><path fill="#FF960B" d="M 242.609375 157.957031 C 228.53125 166.316406 211.710938 165.933594 198.34375 158.515625 L 150.003906 187.230469 C 182.675781 207.800781 225.46875 209.824219 260.898438 188.789062 C 296.316406 167.753906 315.035156 129.199219 312.640625 90.644531 L 264.3125 119.339844 C 264.414062 134.628906 256.679688 149.605469 242.609375 157.957031 Z M 242.609375 157.957031"/><path fill="#FFBE08" d="M 175.851562 120.601562 C 175.746094 105.28125 183.472656 90.328125 197.550781 81.976562 C 211.617188 73.613281 228.449219 73.996094 241.816406 81.417969 L 298.128906 47.964844 C 264.859375 12.003906 209.792969 2.785156 166.019531 28.796875 C 122.226562 54.789062 103.941406 107.5625 119.535156 154.023438 Z M 175.851562 120.601562"/><path fill="#FF960B" d="M 197.550781 81.976562 C 211.617188 73.613281 228.449219 73.996094 241.816406 81.417969 L 290.160156 52.691406 C 257.484375 32.109375 214.691406 30.097656 179.261719 51.125 C 143.84375 72.179688 125.117188 110.722656 127.507812 149.285156 L 175.851562 120.601562 C 175.746094 105.28125 183.472656 90.328125 197.550781 81.976562 Z M 197.550781 81.976562"/><path fill="#33363A" d="M 119.535156 157.191406 C 119.164062 157.191406 118.792969 157.128906 118.433594 156.996094 C 117.535156 156.65625 116.84375 155.953125 116.535156 155.035156 C 100.226562 106.449219 120.359375 52.21875 164.402344 26.050781 C 208.441406 -0.105469 265.664062 8.203125 300.453125 45.808594 C 301.101562 46.519531 301.398438 47.46875 301.265625 48.417969 C 301.121094 49.367188 300.566406 50.195312 299.738281 50.699219 L 243.4375 84.132812 C 242.46875 84.722656 241.261719 84.730469 240.28125 84.183594 C 227.441406 77.042969 211.691406 77.25 199.167969 84.699219 C 186.636719 92.132812 178.914062 105.871094 179.027344 120.570312 C 179.027344 121.695312 178.4375 122.738281 177.46875 123.316406 L 121.15625 156.75 C 120.660156 157.058594 120.101562 157.191406 119.535156 157.191406 Z M 219.984375 17.214844 C 201.976562 17.214844 183.863281 21.871094 167.640625 31.523438 C 127.269531 55.480469 108.230469 104.476562 121.363281 149.253906 L 172.703125 118.765625 C 173.21875 102.539062 181.996094 87.507812 195.929688 79.230469 C 209.863281 70.972656 227.242188 70.445312 241.722656 77.785156 L 293.066406 47.285156 C 273.347656 27.558594 246.789062 17.214844 219.984375 17.214844 Z M 219.984375 17.214844"/><path fill="#FFBE08" d="M 239.992188 108.132812 C 246.519531 119.144531 242.890625 133.359375 231.894531 139.894531 C 220.902344 146.417969 206.699219 142.792969 200.167969 131.78125 C 193.640625 120.785156 197.273438 106.550781 208.265625 100.039062 C 219.261719 93.503906 233.464844 97.140625 239.992188 108.132812 Z M 239.992188 108.132812"/><path fill="#FF960B" d="M 200.167969 131.78125 C 193.640625 120.777344 197.273438 106.550781 208.265625 100.039062 C 219.261719 93.503906 233.464844 97.140625 239.992188 108.132812"/><path fill="#33363A" d="M 220.117188 146.3125 C 217.941406 146.3125 215.742188 146.042969 213.566406 145.488281 C 206.761719 143.742188 201.027344 139.449219 197.4375 133.398438 C 193.847656 127.351562 192.835938 120.269531 194.570312 113.457031 C 196.3125 106.636719 200.601562 100.894531 206.648438 97.304688 C 219.117188 89.902344 235.296875 94.023438 242.714844 106.523438 C 246.304688 112.582031 247.324219 119.652344 245.582031 126.464844 C 243.847656 133.285156 239.558594 139.015625 233.503906 142.609375 C 229.390625 145.0625 224.789062 146.3125 220.117188 146.3125 Z M 220.042969 99.96875 C 216.578125 99.96875 213.074219 100.863281 209.875 102.765625 C 205.285156 105.480469 202.035156 109.835938 200.714844 115.015625 C 199.394531 120.1875 200.167969 125.578125 202.894531 130.167969 C 205.617188 134.773438 209.96875 138.023438 215.136719 139.347656 C 220.3125 140.667969 225.6875 139.894531 230.277344 137.15625 C 234.867188 134.441406 238.125 130.085938 239.445312 124.914062 C 240.765625 119.746094 239.992188 114.347656 237.257812 109.753906 C 233.535156 103.457031 226.871094 99.96875 220.042969 99.96875 Z M 220.042969 99.96875"/><path fill="#33363A" d="M 153.972656 162.394531 C 152.890625 162.394531 151.839844 161.835938 151.25 160.835938 C 150.355469 159.328125 150.847656 157.398438 152.355469 156.492188 L 180.492188 139.789062 C 181.996094 138.902344 183.9375 139.398438 184.832031 140.894531 C 185.730469 142.410156 185.226562 144.351562 183.730469 145.238281 L 155.59375 161.953125 C 155.078125 162.25 154.519531 162.394531 153.972656 162.394531 Z M 153.972656 162.394531"/><path fill="#33363A" d="M 137.761719 172.003906 C 136.933594 172.003906 136.121094 171.664062 135.523438 171.074219 C 134.933594 170.496094 134.59375 169.683594 134.59375 168.847656 C 134.59375 168.011719 134.933594 167.195312 135.523438 166.597656 C 136.707031 165.441406 138.84375 165.441406 140 166.597656 C 140.597656 167.195312 140.925781 168.011719 140.925781 168.847656 C 140.925781 169.683594 140.597656 170.488281 140 171.074219 C 139.410156 171.664062 138.605469 172.003906 137.761719 172.003906 Z M 137.761719 172.003906"/><path fill="#33363A" d="M 123 180.777344 C 122.175781 180.777344 121.371094 180.4375 120.753906 179.859375 C 120.164062 179.25 119.824219 178.425781 119.824219 177.609375 C 119.824219 176.785156 120.164062 175.957031 120.753906 175.359375 C 121.960938 174.183594 124.054688 174.183594 125.230469 175.359375 C 125.828125 175.957031 126.167969 176.785156 126.167969 177.609375 C 126.167969 178.425781 125.828125 179.25 125.230469 179.859375 C 124.652344 180.4375 123.816406 180.777344 123 180.777344 Z M 123 180.777344"/><path fill="#33363A" d="M 258.050781 100.585938 C 256.96875 100.585938 255.917969 100.027344 255.328125 99.039062 C 254.429688 97.519531 254.925781 95.570312 256.433594 94.683594 L 284.566406 77.992188 C 286.074219 77.082031 288.011719 77.578125 288.910156 79.097656 C 289.796875 80.601562 289.300781 82.535156 287.796875 83.429688 L 259.671875 100.144531 C 259.15625 100.441406 258.609375 100.585938 258.050781 100.585938 Z M 258.050781 100.585938"/><path fill="#33363A" d="M 302.390625 74.265625 C 301.554688 74.265625 300.71875 73.914062 300.152344 73.335938 C 299.566406 72.726562 299.222656 71.910156 299.222656 71.085938 C 299.222656 70.238281 299.566406 69.425781 300.152344 68.824219 C 301.339844 67.636719 303.433594 67.636719 304.628906 68.824219 C 305.226562 69.425781 305.558594 70.238281 305.558594 71.085938 C 305.558594 71.910156 305.226562 72.726562 304.628906 73.335938 C 304.039062 73.914062 303.214844 74.265625 302.390625 74.265625 Z M 302.390625 74.265625"/><path fill="#33363A" d="M 317.148438 65.480469 C 316.078125 65.480469 315.015625 64.921875 314.425781 63.933594 C 313.53125 62.4375 314.035156 60.484375 315.53125 59.578125 L 358.28125 34.195312 C 359.789062 33.308594 361.726562 33.792969 362.625 35.300781 C 363.511719 36.816406 363.015625 38.746094 361.507812 39.65625 L 318.769531 65.039062 C 318.261719 65.347656 317.707031 65.480469 317.148438 65.480469 Z M 317.148438 65.480469"/><g clip-path="url(#a)"><path fill="#33363A" d="M 312.054688 278.25 C 310.949219 278.25 309.910156 277.660156 309.332031 276.703125 L 273.046875 215.503906 C 273.039062 215.472656 273.027344 215.460938 273.015625 215.441406 C 229.359375 239.667969 173.777344 230.945312 139.710938 194.105469 C 139.058594 193.402344 138.761719 192.441406 138.894531 191.503906 C 139.027344 190.554688 139.585938 189.71875 140.410156 189.234375 L 196.726562 155.789062 C 197.695312 155.210938 198.890625 155.199219 199.882812 155.746094 C 212.710938 162.878906 228.472656 162.683594 240.992188 155.253906 C 253.523438 147.808594 261.238281 134.0625 261.136719 119.363281 C 261.136719 118.238281 261.722656 117.183594 262.691406 116.628906 L 369.523438 53.15625 C 370.636719 52.496094 372.03125 52.578125 373.0625 53.363281 C 374.082031 54.136719 374.535156 55.46875 374.195312 56.71875 L 315.117188 275.898438 C 314.789062 277.144531 313.746094 278.054688 312.488281 278.21875 C 312.34375 278.25 312.199219 278.25 312.054688 278.25 Z M 278.832031 212.828125 L 310.949219 267 L 366.058594 62.601562 L 267.457031 121.148438 C 266.941406 137.382812 258.164062 152.425781 244.21875 160.703125 C 230.296875 168.960938 212.917969 169.476562 198.425781 162.148438 L 147.085938 192.640625 C 180.066406 225.636719 232.164062 232.378906 272.53125 208.410156 L 273.71875 207.667969 C 274.636719 207.132812 275.769531 207.070312 276.738281 207.535156 C 277.710938 208.007812 278.371094 208.9375 278.492188 210 Z M 278.832031 212.828125"/></g><path fill="#33363A" d="M 302.917969 208.390625 C 301.742188 208.390625 300.65625 207.738281 300.109375 206.699219 L 278.007812 164.726562 C 277.390625 163.5625 277.566406 162.125 278.453125 161.144531 C 279.328125 160.15625 280.730469 159.824219 281.96875 160.300781 L 302.917969 168.515625 L 323.855469 160.300781 C 325.089844 159.824219 326.492188 160.15625 327.382812 161.144531 C 328.257812 162.125 328.433594 163.5625 327.8125 164.726562 L 305.722656 206.699219 C 305.175781 207.738281 304.09375 208.390625 302.917969 208.390625 Z M 287.589844 169.3125 L 302.917969 198.417969 L 318.242188 169.3125 L 304.070312 174.875 C 303.328125 175.164062 302.503906 175.164062 301.761719 174.875 Z M 287.589844 169.3125"/><g fill="#494949"><g><g><path d="M 34.945312 -38.21875 C 32.207031 -44.886719 26.015625 -48.042969 17.917969 -46.96875 C 12.859375 -46.433594 9.523438 -44.054688 7.917969 -42.921875 C 7.085938 -42.328125 6.785156 -42.089844 6.371094 -42.269531 L 6.011719 -42.386719 L 5.953125 -42.804688 C 5.773438 -44.886719 5 -45.183594 4.167969 -45.183594 C 4.167969 -45.183594 4.109375 -45.183594 4.109375 -45.183594 C 3.273438 -45.183594 2.441406 -44.886719 2.382812 -42.804688 C 2.382812 -37.445312 2.621094 -32.085938 2.917969 -26.847656 C 3.09375 -22.859375 3.332031 -18.8125 3.394531 -14.824219 C 3.394531 -13.515625 3.394531 -12.203125 3.394531 -10.953125 C 3.332031 -8.035156 3.332031 -5 3.691406 -2.023438 C 3.808594 -1.070312 4.347656 0.0585938 5.894531 0 C 6.371094 0 7.738281 -0.0585938 7.976562 -2.261719 C 8.035156 -2.796875 7.976562 -3.332031 7.976562 -3.929688 C 7.917969 -4.285156 7.917969 -4.582031 7.917969 -4.941406 C 7.917969 -7.441406 7.917969 -9.941406 7.917969 -12.441406 L 7.917969 -16.191406 L 8.691406 -15.894531 C 15.894531 -13.277344 22.5625 -14.167969 29.171875 -18.8125 C 36.492188 -23.871094 38.339844 -30.0625 34.945312 -38.21875 Z M 30.421875 -29.410156 C 30.300781 -27.980469 29.527344 -26.371094 28.574219 -25.421875 C 24.824219 -21.667969 20.65625 -19.765625 16.429688 -19.765625 C 13.929688 -19.765625 11.488281 -20.417969 8.988281 -21.730469 C 8.035156 -22.207031 8.691406 -32.027344 8.75 -32.148438 C 9.347656 -36.550781 10.179688 -37.980469 13.574219 -40.066406 C 17.144531 -42.269531 21.730469 -42.386719 25.242188 -40.363281 C 29.050781 -38.160156 30.777344 -34.46875 30.421875 -29.410156 Z M 30.421875 -29.410156" transform="translate(8.701 281.772)"/></g></g></g><g fill="#494949"><g><g><path d="M 8.453125 -7.144531 C 12.144531 -3.75 16.550781 -1.84375 21.3125 -0.59375 C 28.457031 1.25 34.589844 -1.070312 39.886719 -5.894531 C 41.195312 -7.085938 42.386719 -8.511719 43.457031 -9.941406 C 49.710938 -18.335938 49.292969 -30.660156 42.503906 -38.515625 C 38.816406 -42.863281 33.636719 -44.828125 28.515625 -46.375 C 19.765625 -48.933594 11.191406 -45.066406 6.546875 -37.265625 C 3.808594 -32.683594 2.5 -27.683594 2.441406 -23.039062 C 2.144531 -16.371094 4.046875 -11.3125 8.453125 -7.144531 Z M 11.371094 -34.648438 C 13.75 -38.933594 17.441406 -41.375 22.265625 -41.851562 C 23.15625 -41.96875 24.171875 -41.316406 25.0625 -40.898438 C 27.445312 -39.707031 29.707031 -38.277344 32.148438 -37.265625 C 37.089844 -35.183594 40.304688 -31.613281 41.015625 -26.371094 C 42.328125 -17.027344 36.96875 -8.871094 28.277344 -6.546875 C 22.144531 -4.941406 11.25 -10.417969 9.109375 -16.429688 C 8.453125 -18.335938 8.273438 -20.480469 7.917969 -22.5625 C 8.214844 -26.910156 9.285156 -30.898438 11.371094 -34.648438 Z M 11.371094 -34.648438" transform="translate(47.754 281.772)"/></g></g></g><g fill="#494949"><g><g><path d="M 7.976562 -28.398438 C 7.859375 -33.21875 7.738281 -38.101562 7.621094 -42.921875 C 7.5 -45.78125 6.667969 -47.089844 5.121094 -47.207031 C 3.394531 -47.269531 2.5 -45.898438 2.5 -42.863281 C 2.441406 -30.660156 2.382812 -18.515625 2.441406 -6.308594 C 2.441406 -4.582031 3.035156 -2.859375 3.570312 -1.191406 C 3.75 -0.65625 4.523438 0 5 0 C 5.597656 0 6.429688 -0.535156 6.667969 -1.070312 C 7.261719 -2.558594 7.859375 -4.167969 7.976562 -5.773438 C 8.15625 -9.761719 8.035156 -13.75 8.097656 -17.800781 C 8.097656 -19.882812 8.574219 -20.242188 10.539062 -19.40625 C 17.859375 -16.429688 24.945312 -13.039062 31.375 -8.335938 C 32.445312 -7.5 33.636719 -6.785156 34.886719 -6.191406 C 36.671875 -5.296875 38.515625 -5.597656 39.171875 -7.023438 C 40.066406 -8.691406 39.351562 -10.121094 37.921875 -11.074219 C 33.277344 -14.050781 28.695312 -17.085938 23.933594 -19.824219 C 21.074219 -21.492188 17.980469 -22.621094 14.703125 -24.109375 C 16.964844 -25.957031 19.050781 -27.742188 21.253906 -29.46875 C 25.121094 -32.503906 28.992188 -35.421875 32.863281 -38.515625 C 34.707031 -40.003906 35.0625 -41.730469 34.113281 -43.101562 C 33.101562 -44.53125 31.3125 -44.769531 29.289062 -43.695312 C 28.515625 -43.339844 27.742188 -42.863281 27.085938 -42.328125 C 22.027344 -38.101562 16.964844 -33.8125 11.90625 -29.585938 C 10.714844 -28.515625 9.585938 -27.382812 8.097656 -26.015625 C 8.035156 -27.148438 8.035156 -27.742188 7.976562 -28.398438 Z M 7.976562 -28.398438" transform="translate(98.118 281.772)"/></g></g></g><g fill="#494949"><g><g><path d="M 29.347656 -7.261719 C 28.871094 -8.871094 27.265625 -9.285156 24.585938 -8.632812 C 20.597656 -7.621094 16.609375 -6.667969 12.621094 -5.714844 C 9.882812 -5.058594 8.511719 -5.835938 8.453125 -8.632812 C 8.273438 -13.691406 8.394531 -18.753906 8.394531 -23.992188 C 8.574219 -23.992188 8.8125 -24.050781 9.109375 -23.992188 C 14.347656 -23.515625 14.289062 -24.289062 19.585938 -23.871094 C 20.480469 -23.8125 20.300781 -23.8125 21.015625 -24.289062 C 21.847656 -24.882812 22.859375 -26.015625 22.859375 -26.910156 C 22.859375 -27.742188 21.789062 -28.933594 20.894531 -29.347656 C 19.824219 -29.765625 19.765625 -29.585938 18.574219 -29.585938 C 13.394531 -29.585938 13.453125 -28.277344 8.335938 -28.277344 C 8.335938 -32.324219 8.273438 -36.136719 8.453125 -39.945312 C 8.453125 -40.601562 9.523438 -41.554688 10.238281 -41.671875 C 13.335938 -42.269531 16.492188 -42.566406 19.585938 -42.980469 C 21.253906 -43.21875 22.859375 -43.398438 24.46875 -43.757812 C 25.003906 -43.875 25.421875 -44.589844 25.894531 -45.066406 C 25.421875 -45.542969 24.945312 -46.136719 24.40625 -46.496094 C 24.109375 -46.734375 23.632812 -46.792969 23.21875 -46.792969 C 19.050781 -46.792969 14.882812 -47.03125 10.714844 -46.734375 C 5.238281 -46.316406 3.214844 -44.351562 2.976562 -38.816406 C 2.621094 -29.289062 2.558594 -19.765625 2.382812 -10.238281 C 2.382812 -8.8125 2.679688 -7.382812 3.035156 -5.953125 C 4.109375 -1.667969 7.796875 1.011719 12.144531 0.179688 C 16.90625 -0.714844 21.609375 -2.023438 26.253906 -3.332031 C 28.8125 -4.046875 29.824219 -5.65625 29.347656 -7.261719 Z M 14.050781 -53.757812 C 14.585938 -54.054688 15.65625 -54.472656 16.3125 -55.246094 C 17.859375 -57.03125 19.230469 -59.054688 20.539062 -61.019531 C 21.667969 -62.6875 21.371094 -64.292969 19.941406 -65.246094 C 18.632812 -66.082031 16.964844 -65.78125 15.953125 -64.234375 C 14.40625 -62.03125 12.917969 -59.769531 11.609375 -57.390625 C 10.539062 -55.425781 11.488281 -53.757812 14.050781 -53.757812 Z M 14.050781 -53.757812" transform="translate(140.207 281.772)"/></g></g></g><g fill="#494949"><g><g><path d="M 6.546875 -38.339844 C 6.609375 -28.039062 6.667969 -17.742188 6.667969 -7.441406 C 6.667969 -6.488281 6.546875 -5.597656 6.308594 -4.703125 C 5.65625 -2.382812 6.609375 -0.476562 8.988281 -0.117188 C 10.773438 0.117188 12.738281 0.179688 14.40625 -0.296875 C 22.324219 -2.441406 29.46875 -6.191406 35.300781 -11.90625 C 42.921875 -19.40625 42.445312 -31.195312 34.648438 -38.515625 C 26.550781 -46.136719 17.027344 -48.695312 6.132812 -46.195312 C 4.464844 -45.839844 2.320312 -45.601562 2.382812 -43.28125 C 2.5 -40.71875 4.703125 -41.078125 6.546875 -40.839844 C 6.546875 -39.886719 6.546875 -39.113281 6.546875 -38.339844 Z M 11.550781 -37.742188 C 11.488281 -38.875 11.550781 -40.066406 11.550781 -41.433594 C 15.65625 -41.730469 19.230469 -40.601562 22.800781 -39.292969 C 26.492188 -37.863281 29.410156 -35.300781 31.789062 -32.207031 C 34.886719 -28.21875 34.707031 -21.667969 30.957031 -17.621094 C 26.074219 -12.324219 19.585938 -9.761719 13.039062 -7.023438 C 10.597656 -17.382812 11.90625 -27.621094 11.550781 -37.742188 Z M 11.550781 -37.742188" transform="translate(172.117 281.772)"/></g></g></g><g fill="#494949"><g><g><path d="M 9.109375 -24.289062 C 14.347656 -23.8125 14.289062 -24.585938 19.527344 -24.171875 C 20.480469 -24.050781 20.300781 -24.109375 21.015625 -24.585938 C 21.847656 -25.183594 22.859375 -26.3125 22.859375 -27.207031 C 22.859375 -28.039062 21.789062 -29.230469 20.894531 -29.585938 C 19.824219 -30.0625 19.765625 -29.886719 18.574219 -29.886719 C 13.394531 -29.886719 13.453125 -28.574219 8.335938 -28.574219 C 8.335938 -32.625 8.273438 -36.433594 8.453125 -40.242188 C 8.453125 -40.839844 9.523438 -41.851562 10.238281 -41.96875 C 13.335938 -42.503906 16.492188 -42.863281 19.585938 -43.28125 C 21.253906 -43.457031 22.859375 -43.636719 24.46875 -44.054688 C 25.003906 -44.171875 25.421875 -44.886719 25.894531 -45.304688 C 25.421875 -45.839844 24.945312 -46.375 24.40625 -46.792969 C 24.109375 -47.03125 23.632812 -47.03125 23.21875 -47.089844 C 19.050781 -47.089844 14.882812 -47.328125 10.714844 -47.03125 C 5.238281 -46.613281 3.214844 -44.648438 2.976562 -39.113281 C 2.621094 -29.585938 2.558594 -20.0625 2.382812 -10.539062 C 2.382812 -9.109375 2.679688 -7.679688 3.035156 -6.25 C 4.109375 -1.964844 7.796875 0.714844 12.144531 -0.117188 C 16.90625 -1.011719 21.609375 -2.320312 26.253906 -3.632812 C 28.8125 -4.347656 29.824219 -5.953125 29.347656 -7.5625 C 28.871094 -9.167969 27.265625 -9.585938 24.585938 -8.929688 C 20.597656 -7.917969 16.609375 -6.964844 12.621094 -6.011719 C 9.882812 -5.359375 8.511719 -6.132812 8.453125 -8.929688 C 8.273438 -13.988281 8.394531 -19.050781 8.394531 -24.289062 C 8.574219 -24.289062 8.8125 -24.289062 9.109375 -24.289062 Z M 9.109375 -24.289062" transform="translate(215.337 281.772)"/></g></g></g><g fill="#494949"><g><g><path d="M 27.265625 -4.882812 C 28.039062 -3.570312 28.933594 -2.261719 29.945312 -1.070312 C 31.015625 0.0585938 32.386719 0.417969 33.8125 -0.476562 C 35.183594 -1.429688 35.242188 -2.796875 34.765625 -4.226562 C 34.46875 -5 34.050781 -5.65625 33.695312 -6.308594 C 30.898438 -11.550781 28.160156 -16.789062 25.300781 -22.027344 C 24.765625 -23.039062 24.765625 -23.753906 25.539062 -24.644531 C 29.410156 -29.410156 33.21875 -34.230469 37.148438 -38.992188 C 38.875 -41.136719 39.351562 -43.101562 38.101562 -44.292969 C 36.851562 -45.480469 34.828125 -45.007812 32.863281 -42.742188 C 30.125 -39.589844 27.503906 -36.375 24.882812 -33.101562 C 23.8125 -31.847656 22.859375 -30.480469 21.667969 -29.050781 C 21.132812 -29.945312 20.777344 -30.597656 20.300781 -31.195312 C 16.789062 -36.015625 13.277344 -40.898438 9.644531 -45.71875 C 8.691406 -47.03125 7.261719 -47.683594 5.773438 -46.671875 C 4.109375 -45.601562 4.40625 -43.992188 5.238281 -42.566406 C 5.953125 -41.253906 6.847656 -40.066406 7.679688 -38.816406 C 10.476562 -34.589844 13.15625 -30.242188 16.015625 -26.074219 C 17.203125 -24.289062 17.144531 -22.980469 15.714844 -21.253906 C 11.488281 -15.894531 7.441406 -10.359375 3.332031 -4.882812 C 2.5 -3.75 1.84375 -2.382812 3.09375 -1.25 C 4.464844 -0.0585938 5.65625 -1.011719 6.609375 -2.023438 C 9.167969 -4.820312 11.667969 -7.679688 14.167969 -10.597656 C 16.191406 -12.976562 18.097656 -15.359375 20.242188 -17.980469 C 22.683594 -13.453125 24.945312 -9.167969 27.265625 -4.882812 Z M 27.265625 -4.882812" transform="translate(247.246 281.772)"/></g></g></g><g fill="#8B5E3B"><g><g><path d="M 5.761719 -4.867188 C 8.273438 -2.554688 11.277344 -1.257812 14.523438 -0.40625 C 19.390625 0.851562 23.566406 -0.730469 27.175781 -4.015625 C 28.070312 -4.828125 28.882812 -5.800781 29.613281 -6.773438 C 33.871094 -12.492188 33.585938 -20.890625 28.960938 -26.246094 C 26.449219 -29.207031 22.917969 -30.542969 19.429688 -31.597656 C 13.46875 -33.34375 7.625 -30.707031 4.460938 -25.394531 C 2.597656 -22.269531 1.703125 -18.863281 1.664062 -15.699219 C 1.460938 -11.15625 2.757812 -7.707031 5.761719 -4.867188 Z M 7.746094 -23.609375 C 9.371094 -26.527344 11.886719 -28.191406 15.171875 -28.515625 C 15.777344 -28.597656 16.46875 -28.152344 17.078125 -27.867188 C 18.699219 -27.054688 20.242188 -26.082031 21.90625 -25.394531 C 25.269531 -23.972656 27.460938 -21.539062 27.949219 -17.96875 C 28.839844 -11.601562 25.191406 -6.042969 19.269531 -4.460938 C 15.089844 -3.367188 7.667969 -7.097656 6.207031 -11.195312 C 5.761719 -12.492188 5.636719 -13.953125 5.394531 -15.375 C 5.597656 -18.335938 6.328125 -21.050781 7.746094 -23.609375 Z M 7.746094 -23.609375" transform="translate(5.463 216.776)"/></g></g></g><g fill="#8B5E3B"><g><g><path d="M 16.386719 -13.75 C 15.738281 -15.292969 14.480469 -16.550781 12.941406 -17.078125 C 9.898438 -18.132812 7.828125 -16.347656 5.839844 -14.722656 C 5.273438 -14.238281 4.867188 -13.546875 4.179688 -12.738281 C 4.097656 -13.871094 4.136719 -14.765625 3.933594 -15.617188 C 3.894531 -15.738281 3.855469 -15.859375 3.730469 -15.980469 C 3.285156 -16.507812 2.515625 -16.507812 2.148438 -15.902344 C 2.070312 -15.820312 2.027344 -15.738281 1.988281 -15.617188 C 1.824219 -14.765625 1.824219 -13.871094 1.824219 -13.019531 C 1.746094 -10.179688 1.703125 -7.382812 1.621094 -4.542969 C 1.621094 -3.652344 2.027344 -3 2.960938 -2.878906 C 3.933594 -2.71875 4.503906 -3.246094 4.785156 -4.136719 C 4.949219 -4.542969 4.90625 -5.03125 5.070312 -5.394531 C 5.960938 -7.542969 6.734375 -9.777344 7.871094 -11.804688 C 8.355469 -12.738281 9.492188 -13.46875 10.507812 -13.996094 C 11.519531 -14.5625 12.738281 -14.117188 13.0625 -12.980469 C 13.507812 -11.640625 13.710938 -10.179688 13.914062 -8.761719 C 14.15625 -6.976562 14.277344 -5.191406 14.523438 -3.449219 C 14.683594 -2.597656 15.171875 -1.867188 16.183594 -1.90625 C 17.199219 -1.988281 17.605469 -2.71875 17.6875 -3.609375 C 17.96875 -7.097656 17.765625 -10.546875 16.386719 -13.75 Z M 16.386719 -13.75" transform="translate(43.834 216.776)"/></g></g></g><g fill="#8B5E3B"><g><g><path d="M 4.90625 -13.34375 C 4.828125 -16.996094 4.785156 -20.605469 4.664062 -24.214844 C 4.664062 -25.027344 4.542969 -25.878906 4.21875 -26.609375 C 4.054688 -27.015625 3.367188 -27.378906 2.921875 -27.378906 C 2.597656 -27.378906 2.148438 -26.773438 1.988281 -26.367188 C 1.785156 -25.960938 1.824219 -25.433594 1.824219 -24.945312 C 1.824219 -21.417969 1.582031 -6.816406 1.664062 -3 C 1.664062 -2.230469 1.90625 -1.378906 2.273438 -0.648438 C 2.878906 0.40625 4.179688 0.363281 4.625 -0.769531 C 4.949219 -1.621094 5.109375 -2.636719 5.070312 -3.570312 C 5.070312 -6.855469 4.949219 -10.101562 4.90625 -13.34375 Z M 4.90625 -13.34375" transform="translate(67.362 216.776)"/></g></g></g><g fill="#8B5E3B"><g><g><path d="M 3.855469 -16.671875 C 2.636719 -16.792969 2.394531 -15.777344 2.3125 -14.847656 C 2.070312 -10.992188 1.867188 -7.140625 1.664062 -3.285156 C 1.621094 -2.960938 1.621094 -2.515625 1.824219 -2.273438 C 2.230469 -1.785156 2.800781 -1.015625 3.328125 -1.015625 C 3.855469 -1.015625 4.503906 -1.703125 4.828125 -2.273438 C 5.109375 -2.675781 5.070312 -3.367188 5.070312 -3.894531 C 5.070312 -5.597656 5.070312 -7.300781 5.070312 -9.003906 C 5.070312 -9.003906 5.070312 -9.003906 5.109375 -9.003906 C 5.109375 -10.871094 5.109375 -12.738281 5.070312 -14.601562 C 5.070312 -15.496094 5.109375 -16.550781 3.855469 -16.671875 Z M 4.21875 -23.933594 C 3.246094 -23.972656 2.148438 -22.917969 2.109375 -21.824219 C 2.070312 -20.605469 2.921875 -20.445312 3.730469 -20.363281 C 5.070312 -20.324219 5.800781 -20.890625 5.839844 -21.945312 C 5.921875 -23 5.191406 -23.890625 4.21875 -23.933594 Z M 4.21875 -23.933594" transform="translate(78.193 216.776)"/></g></g></g><g fill="#8B5E3B"><g><g><path d="M 16.386719 -13.75 C 15.738281 -15.292969 14.480469 -16.550781 12.941406 -17.078125 C 9.898438 -18.132812 7.828125 -16.347656 5.839844 -14.722656 C 5.273438 -14.238281 4.867188 -13.546875 4.179688 -12.738281 C 4.097656 -13.871094 4.136719 -14.765625 3.933594 -15.617188 C 3.894531 -15.738281 3.855469 -15.859375 3.730469 -15.980469 C 3.285156 -16.507812 2.515625 -16.507812 2.148438 -15.902344 C 2.070312 -15.820312 2.027344 -15.738281 1.988281 -15.617188 C 1.824219 -14.765625 1.824219 -13.871094 1.824219 -13.019531 C 1.746094 -10.179688 1.703125 -7.382812 1.621094 -4.542969 C 1.621094 -3.652344 2.027344 -3 2.960938 -2.878906 C 3.933594 -2.71875 4.503906 -3.246094 4.785156 -4.136719 C 4.949219 -4.542969 4.90625 -5.03125 5.070312 -5.394531 C 5.960938 -7.542969 6.734375 -9.777344 7.871094 -11.804688 C 8.355469 -12.738281 9.492188 -13.46875 10.507812 -13.996094 C 11.519531 -14.5625 12.738281 -14.117188 13.0625 -12.980469 C 13.507812 -11.640625 13.710938 -10.179688 13.914062 -8.761719 C 14.15625 -6.976562 14.277344 -5.191406 14.523438 -3.449219 C 14.683594 -2.597656 15.171875 -1.867188 16.183594 -1.90625 C 17.199219 -1.988281 17.605469 -2.71875 17.6875 -3.609375 C 17.96875 -7.097656 17.765625 -10.546875 16.386719 -13.75 Z M 16.386719 -13.75" transform="translate(89.796 216.776)"/></g></g></g><g fill="#8B5E3B"><g><g><path d="M 5.515625 -9.53125 C 7.625 -9.574219 9.695312 -9.574219 11.804688 -9.613281 C 14.441406 -9.695312 16.023438 -10.75 16.507812 -12.617188 C 17.199219 -15.496094 15.65625 -18.496094 12.777344 -19.753906 C 9.734375 -21.09375 6.894531 -20.445312 4.90625 -17.929688 C 2.636719 -15.089844 1.542969 -11.84375 1.664062 -8.316406 C 1.746094 -5.109375 3.328125 -2.597656 6.328125 -1.054688 C 9.371094 0.488281 12.535156 0.324219 15.535156 -1.257812 C 16.0625 -1.542969 16.632812 -2.433594 16.507812 -2.878906 C 16.386719 -3.328125 15.414062 -3.773438 14.847656 -3.8125 C 13.710938 -3.894531 12.574219 -3.609375 11.480469 -3.488281 C 7.746094 -3.082031 4.867188 -5.839844 5.3125 -9.410156 C 5.433594 -9.492188 5.476562 -9.53125 5.515625 -9.53125 Z M 8.113281 -16.632812 C 9.125 -17.5625 10.628906 -17.523438 12.046875 -16.671875 C 13.0625 -16.023438 13.871094 -14.277344 13.386719 -13.304688 C 13.183594 -12.898438 12.492188 -12.535156 12.007812 -12.492188 C 9.9375 -12.289062 7.871094 -12.25 5.636719 -12.167969 C 6.164062 -13.871094 6.816406 -15.453125 8.113281 -16.632812 Z M 8.113281 -16.632812" transform="translate(113.323 216.776)"/></g></g></g></svg>