<svg xmlns="http://www.w3.org/2000/svg" xmlns:xlink="http://www.w3.org/1999/xlink" width="810" viewBox="0 0 810 810" height="810" version="1.0"><defs><clipPath id="c"><path d="M0 0H810V810H0z"/></clipPath><filter x="0%" y="0%" width="100%" xmlns:xlink="http://www.w3.org/1999/xlink" xlink:type="simple" xlink:actuate="onLoad" height="100%" id="a" xlink:show="other"><feColorMatrix values="0 0 0 0 1 0 0 0 0 1 0 0 0 0 1 0 0 0 1 0" color-interpolation-filters="sRGB"/></filter><mask id="b"><g filter="url(#a)"><path fill-opacity=".188" d="M-81 -81H891V891H-81z"/></g></mask></defs><path fill="#FFF" d="M-81 -81H891V891H-81z"/><path fill="#FFF" d="M-81 -81H891V891H-81z"/><path fill="#FFBA90" d="M-81 -81H891V891H-81z"/><g mask="url(#b)"><g><g clip-path="url(#c)" fill="#BB7000"><path d="M 0 60.046875 L 809.949219 60.046875 L 809.949219 67.796875 L 0 67.796875 Z M 0 60.046875"/><path d="M 0 145.308594 L 809.949219 145.308594 L 809.949219 153.058594 L 0 153.058594 Z M 0 145.308594"/><path d="M 0 230.570312 L 809.949219 230.570312 L 809.949219 238.324219 L 0 238.324219 Z M 0 230.570312"/><path d="M 0 315.835938 L 809.949219 315.835938 L 809.949219 323.585938 L 0 323.585938 Z M 0 315.835938"/><path d="M 0 401.097656 L 809.949219 401.097656 L 809.949219 408.851562 L 0 408.851562 Z M 0 401.097656"/><path d="M 0 486.363281 L 809.949219 486.363281 L 809.949219 494.113281 L 0 494.113281 Z M 0 486.363281"/><path d="M 0 571.625 L 809.949219 571.625 L 809.949219 579.375 L 0 579.375 Z M 0 571.625"/><path d="M 0 656.886719 L 809.949219 656.886719 L 809.949219 664.640625 L 0 664.640625 Z M 0 656.886719"/><path d="M 0 742.152344 L 809.949219 742.152344 L 809.949219 749.902344 L 0 749.902344 Z M 0 742.152344"/><path d="M 742.152344 0 L 749.902344 0 L 749.902344 809.949219 L 742.152344 809.949219 Z M 742.152344 0"/><path d="M 656.886719 0 L 664.640625 0 L 664.640625 809.949219 L 656.886719 809.949219 Z M 656.886719 0"/><path d="M 571.625 0 L 579.375 0 L 579.375 809.949219 L 571.625 809.949219 Z M 571.625 0"/><path d="M 486.363281 0 L 494.113281 0 L 494.113281 809.949219 L 486.363281 809.949219 Z M 486.363281 0"/><path d="M 401.097656 0 L 408.851562 0 L 408.851562 809.949219 L 401.097656 809.949219 Z M 401.097656 0"/><path d="M 315.835938 0 L 323.585938 0 L 323.585938 809.949219 L 315.835938 809.949219 Z M 315.835938 0"/><path d="M 230.570312 0 L 238.324219 0 L 238.324219 809.949219 L 230.570312 809.949219 Z M 230.570312 0"/><path d="M 145.308594 0 L 153.058594 0 L 153.058594 809.949219 L 145.308594 809.949219 Z M 145.308594 0"/><path d="M 60.046875 0 L 67.796875 0 L 67.796875 809.949219 L 60.046875 809.949219 Z M 60.046875 0"/></g></g></g></svg>